<svg width="24" height="24" viewBox="0 0 24 24" fill="none" xmlns="http://www.w3.org/2000/svg">
<path d="M12.5505 9.49991C12.6491 9.31203 12.7579 9.12941 12.8711 8.94978C12.903 8.89878 12.9364 8.84928 12.9697 8.79903C13.0612 8.66066 13.1569 8.52528 13.2566 8.39253C13.2881 8.35053 13.3185 8.30741 13.3511 8.26616C13.4816 8.09966 13.6177 7.93766 13.761 7.78128C13.7884 7.75128 13.818 7.72316 13.8457 7.69353C13.9661 7.56641 14.0906 7.44303 14.2189 7.32341C14.2646 7.28066 14.3107 7.23866 14.3576 7.19703C14.4934 7.07628 14.6332 6.96003 14.7776 6.84866C14.805 6.82766 14.8309 6.80478 14.8586 6.78416C15.0292 6.65591 15.2059 6.53553 15.3874 6.42041C15.4042 6.40953 15.4196 6.39716 15.4369 6.38628C14.5822 4.94028 13.4002 3.70053 11.9925 2.77466C10.5862 3.69941 9.40649 4.93691 8.55524 6.37878C8.57174 6.38891 8.58674 6.40128 8.60286 6.41178C8.78624 6.52803 8.96474 6.64953 9.13686 6.77928C9.16161 6.79766 9.18449 6.81791 9.20886 6.83666C9.35661 6.95066 9.49949 7.06953 9.63861 7.19291C9.68474 7.23378 9.73011 7.27541 9.77549 7.31741C9.90449 7.43741 10.0294 7.56116 10.1501 7.68866C10.1782 7.71866 10.2079 7.74716 10.2356 7.77716C10.3789 7.93353 10.5154 8.09553 10.6459 8.26203C10.6789 8.30403 10.7096 8.34753 10.7415 8.39028C10.8409 8.52266 10.9361 8.65728 11.0272 8.79528C11.061 8.84628 11.0947 8.89653 11.1274 8.94828C11.2406 9.12791 11.349 9.31016 11.448 9.49803C11.4495 9.50066 11.4506 9.50328 11.4517 9.50591C11.5492 9.69191 11.6374 9.88241 11.7202 10.0755C11.7442 10.131 11.7664 10.1873 11.7892 10.2435C11.8519 10.3984 11.9092 10.5552 11.9625 10.7138C11.9737 10.7479 11.9887 10.7809 11.9996 10.815C12.0109 10.7798 12.0262 10.746 12.0379 10.7108C12.0904 10.5537 12.1474 10.3984 12.2092 10.2454C12.2321 10.1888 12.2546 10.1322 12.2786 10.0759C12.3615 9.88278 12.4496 9.69191 12.5471 9.50591C12.5482 9.50403 12.549 9.50178 12.5501 9.49953L12.5505 9.49991Z" fill="#0C2F25"/>
<path d="M8.85375 21.2963H10.1978C7.341 19.5218 6.114 15.8078 6.05438 15.6229C5.991 15.426 6.09938 15.2149 6.29663 15.1511C6.49312 15.0881 6.705 15.1958 6.76837 15.393C6.78375 15.4406 8.27175 19.9283 11.6179 21.1583V13.2638C11.6179 13.1734 11.6186 13.083 11.6246 12.9956C11.622 12.9161 11.6145 12.8374 11.6089 12.7583C11.6036 12.6799 11.6006 12.6015 11.5927 12.5235C11.5845 12.4395 11.571 12.3566 11.5597 12.2734C11.55 12.2003 11.5421 12.1268 11.5301 12.0544C11.5159 11.9689 11.4967 11.8845 11.4791 11.7994C11.4649 11.7304 11.4532 11.6606 11.4371 11.592C11.4169 11.5058 11.3918 11.421 11.3685 11.3359C11.3505 11.2699 11.3348 11.2035 11.3153 11.1383C11.2886 11.0509 11.2575 10.9654 11.2275 10.8791C11.2061 10.8176 11.1874 10.7554 11.1645 10.6943C11.1319 10.6069 11.0944 10.5218 11.0584 10.4359C11.034 10.3778 11.0122 10.3185 10.9864 10.2611C10.9481 10.1756 10.905 10.0928 10.8637 10.0088C10.836 9.95289 10.8105 9.89552 10.7816 9.84039C10.737 9.75564 10.6875 9.67314 10.6395 9.59027C10.6095 9.53852 10.5817 9.48527 10.5506 9.43389C10.4993 9.34952 10.4434 9.26777 10.3883 9.18564C10.3567 9.13802 10.3271 9.08927 10.2945 9.04239C10.2379 8.96177 10.1771 8.88377 10.1175 8.80539C10.0826 8.75964 10.05 8.71202 10.014 8.66702C9.95063 8.58752 9.88313 8.51139 9.81637 8.43489C9.78038 8.39364 9.747 8.35089 9.71025 8.31039C9.63825 8.23089 9.56175 8.15514 9.486 8.07864C9.4515 8.04377 9.41887 8.00702 9.38325 7.97252C9.30487 7.89639 9.22275 7.82439 9.141 7.75202C9.105 7.72014 9.07087 7.68639 9.0345 7.65527C8.93737 7.57239 8.8365 7.49402 8.73525 7.41602C8.71163 7.39764 8.68913 7.37814 8.66512 7.36014C8.56388 7.28439 8.45887 7.21314 8.35312 7.14264C8.3265 7.12502 8.30138 7.10514 8.27437 7.08789C8.14088 7.00127 8.00437 6.91877 7.86487 6.84039C6.777 6.22877 5.53613 5.90552 4.27537 5.90552H1.5V13.938C1.5 17.9948 4.79888 21.2955 8.85375 21.2955V21.2963Z" fill="#0C2F25"/>
<path d="M16.1291 6.84787C16.0369 6.89962 15.948 6.95587 15.8584 7.011C15.8126 7.03912 15.7654 7.065 15.7208 7.09425C15.6094 7.16662 15.5018 7.24313 15.3949 7.32113C15.3743 7.33613 15.3521 7.35 15.3315 7.365C15.2216 7.44712 15.1155 7.533 15.0105 7.62075C14.9948 7.63388 14.9783 7.64587 14.9625 7.659C14.8695 7.73812 14.7806 7.82138 14.6921 7.90463C14.6666 7.92863 14.6396 7.95112 14.6145 7.9755C14.5335 8.05387 14.457 8.136 14.3798 8.21775C14.3498 8.24962 14.3175 8.28 14.2879 8.31262C14.2196 8.388 14.1551 8.46675 14.0899 8.54475C14.055 8.58675 14.0179 8.62687 13.9838 8.66925C13.9253 8.74237 13.8713 8.8185 13.8158 8.8935C13.7786 8.94375 13.7396 8.9925 13.7036 9.0435C13.6545 9.11362 13.6095 9.18637 13.563 9.258C13.5248 9.31687 13.4843 9.37463 13.4475 9.43463C13.407 9.50063 13.371 9.56925 13.3324 9.63675C13.2938 9.705 13.2529 9.77175 13.2165 9.84113C13.182 9.90675 13.1516 9.97425 13.119 10.041C13.083 10.1145 13.0451 10.1869 13.0118 10.2615C12.9821 10.3275 12.9566 10.3954 12.9289 10.4625C12.897 10.5397 12.8629 10.6162 12.8336 10.6946C12.8085 10.7621 12.7871 10.8315 12.7639 10.8997C12.7369 10.9792 12.7076 11.058 12.6833 11.1382C12.6619 11.2087 12.645 11.2807 12.6255 11.352C12.6038 11.4319 12.5801 11.5114 12.5614 11.5924C12.5445 11.6648 12.5321 11.7383 12.5171 11.811C12.5006 11.892 12.4823 11.9726 12.4688 12.0544C12.4564 12.129 12.4485 12.2048 12.4384 12.2801C12.4275 12.3615 12.4144 12.4421 12.4061 12.5239C12.3983 12.6019 12.3953 12.6802 12.39 12.7586C12.3848 12.8377 12.3773 12.9161 12.3746 12.9956C12.3806 13.083 12.3814 13.173 12.3814 13.2637V21.1583C15.7275 19.9283 17.2155 15.4403 17.2309 15.393C17.2946 15.1961 17.5065 15.0885 17.7026 15.1511C17.8995 15.2145 18.0079 15.4256 17.9449 15.6229C17.8853 15.8077 16.6583 19.5218 13.8015 21.2963H15.1455C19.2004 21.2963 22.4993 17.9955 22.4993 13.9387V5.90625H19.7243C18.4646 5.90625 17.2211 6.23175 16.1284 6.84787H16.1291Z" fill="#0C2F25"/>
</svg>
