<svg width="12" height="12" viewBox="0 0 12 12" fill="none" xmlns="http://www.w3.org/2000/svg">
<path d="M1.41337 4.59346C0.647933 4.59346 0.0352173 5.22608 0.0352173 6.0037C0.0352173 6.78132 0.647933 7.42017 1.40137 7.42017C1.58777 7.42017 1.76217 7.53645 1.83415 7.71542C1.9052 7.89439 1.87198 8.10017 1.74002 8.23703C1.20021 8.8017 1.20021 9.70134 1.72941 10.2545C2.26 10.8048 3.12648 10.8053 3.65938 10.2531C3.79133 10.1162 3.99618 10.0693 4.16874 10.143C4.34084 10.2172 4.45941 10.3852 4.45941 10.5785C4.45941 10.9537 4.58122 11.2786 4.81098 11.537C4.81791 11.5447 4.82713 11.5566 4.83498 11.5667L4.83544 11.5672C4.83544 11.5672 4.83544 11.5672 4.8359 11.5681C4.83774 11.5705 4.84005 11.5734 4.84144 11.5753C4.84743 11.5815 4.85297 11.5868 4.85897 11.593C5.32773 12.0792 6.11347 12.139 6.6399 11.7227C6.98686 11.458 7.18987 11.0393 7.18987 10.5976C7.18987 10.4024 7.30429 10.2172 7.4787 10.1445C7.65356 10.0713 7.85334 10.1062 7.98345 10.2464C8.51219 10.7948 9.40497 10.7891 9.92125 10.2531C10.4486 9.70182 10.4486 8.80218 9.91987 8.24899C9.78884 8.11165 9.74362 7.90014 9.81514 7.72164C9.88665 7.54315 10.0491 7.42064 10.235 7.42064C10.6115 7.42064 10.9547 7.27326 11.2127 7.00576C11.471 6.73825 11.6127 6.3827 11.6127 6.00418C11.6127 5.22656 11 4.59394 10.247 4.59394C10.0606 4.59394 9.88619 4.47765 9.81421 4.29868C9.74316 4.11971 9.77638 3.91394 9.90834 3.77708C10.1732 3.49713 10.3144 3.14063 10.3144 2.76306C10.3144 2.3855 10.1732 2.02899 9.91756 1.75862C9.38882 1.20926 8.52188 1.20974 7.98898 1.76149C7.85795 1.89835 7.65448 1.9462 7.48008 1.87155C7.30752 1.79738 7.18895 1.62893 7.18895 1.43561C7.18895 0.635495 6.57623 0 5.82326 0C5.07028 0 4.45757 0.635495 4.45757 1.41646C4.45757 1.60979 4.34545 1.79403 4.17289 1.8682C3.99941 1.94046 3.80148 1.91079 3.66999 1.77393C3.12925 1.21309 2.24201 1.22601 1.72664 1.76149C1.19882 2.31276 1.19882 3.21241 1.72803 3.76559C1.85906 3.90245 1.90428 4.11445 1.83276 4.29294C1.76125 4.47143 1.59884 4.59394 1.4129 4.59394L1.41337 4.59346ZM5.82418 3.54116C7.13358 3.54116 8.19845 4.6461 8.19845 6.0037C8.19845 7.36131 7.13312 8.46624 5.82418 8.46624C4.51524 8.46624 3.44991 7.36131 3.44991 6.0037C3.44991 4.6461 4.51524 3.54116 5.82418 3.54116Z" fill="#C7DC49"/>
<path d="M5.82419 7.50919C6.62583 7.50919 7.2757 6.83517 7.2757 6.00372C7.2757 5.17227 6.62583 4.49825 5.82419 4.49825C5.02254 4.49825 4.37268 5.17227 4.37268 6.00372C4.37268 6.83517 5.02254 7.50919 5.82419 7.50919Z" fill="#C7DC49"/>
</svg>
