<svg xmlns="http://www.w3.org/2000/svg" width="499.98" height="467.96" viewBox="0 0 499.98 467.96"><defs><style>.a{fill:#10551f;}</style></defs><title>Icon-01</title><path class="a" d="M104.12,312.84l36.93-21.29a59.52,59.52,0,0,1,43.85-6.31l109.26,26.37a15.65,15.65,0,0,1,11.95,15.26c0,10.09-9.18,16.05-16.66,15.61l-79.84-5.39a6.56,6.56,0,0,0-6.9,6,6.48,6.48,0,0,0,6,6.9l79.86,5.39a29,29,0,0,0,20.21-6.6L414.12,293a69.23,69.23,0,0,1,77.22,2.27,4.1,4.1,0,0,1-.14,6.75L319.08,412.87a59.56,59.56,0,0,1-43.38,8.51l-86.52-16.32a6.55,6.55,0,0,0-3.86.46l-12.54,5.65A6.48,6.48,0,0,0,178.1,423l10.68-4.81,84.54,15.94a72.47,72.47,0,0,0,52.77-10.35L498.23,312.87a17.07,17.07,0,0,0,.66-28.16,82.18,82.18,0,0,0-91.26-2.94l-88.69,47c0-.63.12-1.27.12-1.9A28.59,28.59,0,0,0,297.22,299L188,272.65a72.47,72.47,0,0,0-53.36,7.67l-36.94,21.3a6.48,6.48,0,1,0,6.47,11.22Z" transform="translate(-6.01 -22.02)"/><path class="a" d="M160.37,461.23l-37.82,25.65a17.79,17.79,0,0,1-24.77-4.72L9.08,351.44a17.9,17.9,0,0,1,4.77-24.82L51.62,301a17.83,17.83,0,0,1,24.82,4.71l88.65,130.72A17.82,17.82,0,0,1,160.37,461.23Z" transform="translate(-6.01 -22.02)"/><path class="a" d="M444.4,88.81a20.88,20.88,0,0,0-17.25-6C406.94,85,370.31,92,339.64,113.62,333.27,77,312.7,46.37,299.54,30a21,21,0,0,0-32.9,0c-13.16,16.42-33.73,47-40.1,83.67C195.91,92,159.23,85,139,82.8a21,21,0,0,0-23.27,23.31c2.75,25,12.28,71.76,44.87,104.4,45.13,45.08,116.06,46.12,122.23,46.12h.52c6.16,0,77.09-1,122.12-46.12,32.69-32.64,42.22-79.43,45-104.4a21.05,21.05,0,0,0-6.07-17.3ZM169.8,201.34C140,171.5,131.2,128,128.61,104.66A8.17,8.17,0,0,1,130.94,98a7.9,7.9,0,0,1,6.63-2.34c20.26,2.23,58,9.54,87.2,32.85-.15,2.33-.26,4.72-.26,7.1,0,47.46,27.47,87.82,43.27,107.1-23.16-2.44-67.67-11-98-41.35Zm113.26,39.28c-12.33-13.94-45.59-56.07-45.59-105,0-42.28,24.61-79.27,39.27-97.56a8.11,8.11,0,0,1,12.69,0c14.67,18.29,39.28,55.28,39.28,97.56,0,48.86-33.27,91.09-45.65,105Zm113.26-39.28c-30.15,30.26-74.71,38.86-97.87,41.35,15.75-19.33,43.21-59.64,43.21-107.1,0-2.38-.1-4.76-.26-7.1,29.22-23.31,66.94-30.62,87.2-32.84A8.12,8.12,0,0,1,435.23,98a8,8,0,0,1,2.39,6.68c-2.59,23.32-11.4,66.84-41.3,96.68Z" transform="translate(-6.01 -22.02)"/><path class="a" d="M260.38,256h-8.76" transform="translate(-6.01 -22.02)"/></svg>