<svg xmlns="http://www.w3.org/2000/svg" width="499.99" height="485.27" viewBox="0 0 499.99 485.27"><defs><style>.a{fill:#10551f;}</style></defs><title>Icon-02</title><path class="a" d="M335.22,246.41a57.92,57.92,0,0,0-49.69-28.34H285A57.59,57.59,0,0,0,250.87,115.8,57.6,57.6,0,0,0,214.71,13.36H172.43A57.57,57.57,0,0,0,136.26,115.8a57.56,57.56,0,0,0-34.09,102.27h-.57A57.61,57.61,0,0,0,65.23,320.4H63.67a57.67,57.67,0,0,0,0,115.34H255.12a6.48,6.48,0,0,0,0-13H63.67a44.71,44.71,0,1,1,0-89.42H255.12a6.48,6.48,0,0,0,0-13H101.6a44.69,44.69,0,1,1,0-89.37H285.53A44.73,44.73,0,0,1,324,253a6.49,6.49,0,0,0,11.19-6.57ZM127.71,71a44.74,44.74,0,0,1,44.72-44.66h42.28a44.69,44.69,0,0,1,0,89.37H172.43A44.76,44.76,0,0,1,127.71,71ZM248.64,218H138.49a44.69,44.69,0,1,1,0-89.37H248.64a44.69,44.69,0,0,1,0,89.37Z" transform="translate(-6.01 -13.36)"/><path class="a" d="M385.43,257.5A120.57,120.57,0,1,0,506,378.07,120.73,120.73,0,0,0,385.43,257.5Zm73.78,147.87A29.88,29.88,0,0,1,436.77,415c-5.34,0-11.66-1.29-18.86-4.51,10.21,23,.47,36.17-5.18,41.35-7.15,6.58-17.25,9.84-27.36,9.84s-20.15-3.26-27.35-9.84c-5.65-5.23-15.34-18.39-5.08-41.35C345.69,413.71,339.36,415,334,415a29.79,29.79,0,0,1-22.44-9.64c-13.16-14.3-13.16-40.36,0-54.66,5.18-5.64,18.35-15.39,41.3-5.18-10.16-22.95-.47-36.11,5.18-41.29,14.3-13.16,40.36-13.16,54.66,0,5.65,5.18,15.34,18.34,5.18,41.29,22.95-10.21,36.11-.52,41.3,5.13C472.37,365,472.37,391.07,459.21,405.37Z" transform="translate(-6.01 -13.36)"/><path class="a" d="M355.63,378.07A29.22,29.22,0,0,0,359.21,392c-16.53,11.29-30.26,13.1-38.08,4.61-8.45-9.23-8.45-28,0-37.15,7.82-8.55,21.6-6.74,38.13,4.61A29.33,29.33,0,0,0,355.63,378.07Z" transform="translate(-6.01 -13.36)"/><path class="a" d="M404,442.32c-9.23,8.44-28,8.44-37.15,0-8.55-7.88-6.74-21.61,4.61-38.14a28.66,28.66,0,0,0,27.92,0c11.35,16.53,13.16,30.26,4.62,38.14Z" transform="translate(-6.01 -13.36)"/><path class="a" d="M399.36,351.9a29.08,29.08,0,0,0-27.92,0c-11.35-16.52-13.16-30.31-4.61-38.13,9.17-8.45,27.92-8.45,37.15,0,8.54,7.82,6.73,21.61-4.62,38.13Z" transform="translate(-6.01 -13.36)"/><path class="a" d="M402.21,378.07a16.53,16.53,0,0,1-16.78,16.68,16.74,16.74,0,1,1,16.78-16.68Z" transform="translate(-6.01 -13.36)"/><path class="a" d="M449.67,396.62c-7.82,8.5-21.55,6.73-38.08-4.61a28.85,28.85,0,0,0,0-27.93c16.53-11.35,30.26-13.16,38.13-4.61C458.12,368.64,458.12,387.39,449.67,396.62Z" transform="translate(-6.01 -13.36)"/></svg>