<svg xmlns="http://www.w3.org/2000/svg" width="499.97" height="346.17" viewBox="0 0 499.97 346.17"><defs><style>.a{fill:#10551f;}</style></defs><title>Icon-03</title><path class="a" d="M200.83,112.85A116.76,116.76,0,0,0,40.27,282.29l137,137a33.11,33.11,0,0,0,46.94,0l76.16-76.06a6.48,6.48,0,1,0-9.15-9.17l-76.18,76.08c-7.62,7.66-20.95,7.67-28.6,0l-137-137A103.8,103.8,0,1,1,196.22,126.34a6.54,6.54,0,0,0,9.43-.21A103.78,103.78,0,0,1,380.81,219.2a6.47,6.47,0,0,0,12.72,2.42,116.74,116.74,0,0,0-192.7-108.77Z" transform="translate(-6.02 -82.91)"/><path class="a" d="M304.9,210a15.85,15.85,0,0,0-12.9-4.61c-12.38,1.34-34.35,5.49-53.62,18-4.77-22.18-17.15-40.52-25.24-50.57a15.66,15.66,0,0,0-12.28-6,15.87,15.87,0,0,0-12.33,6c-8.08,10.05-20.46,28.39-25.23,50.57-19.27-12.49-41.24-16.58-53.63-18a16,16,0,0,0-12.84,4.56,15.77,15.77,0,0,0-4.51,12.84c1.76,16.17,7.92,46.48,29.17,67.72,29.32,29.28,75.28,29.95,79.22,29.95H201c3.94,0,49.89-.68,79.17-29.95,21.24-21.19,27.41-51.5,29.17-67.66A15.59,15.59,0,0,0,304.9,210ZM130.66,281.3c-18.45-18.44-23.89-45.49-25.49-59.89a2.86,2.86,0,0,1,.83-2.34,2.82,2.82,0,0,1,2.28-.82c12.33,1.34,35.12,5.8,53.15,19.68-1,24.77,9.54,48.6,24.3,68.19-15.13-2.23-38.54-8.29-55.07-24.82Zm70.15,22.95c-8.6-10.2-26.53-34.81-26.53-63,0-26.11,15.29-49.07,24.35-60.41a3.07,3.07,0,0,1,2.23-1.09,2.8,2.8,0,0,1,2.18,1.09c9.12,11.35,24.35,34.35,24.35,60.41C227.39,269.39,209.46,294.05,200.81,304.25ZM271,281.3c-16.43,16.48-39.9,22.59-55.08,24.82,14.77-19.59,25.34-43.42,24.3-68.19,18.08-13.93,40.83-18.34,53.16-19.68a2.87,2.87,0,0,1,2.33.82,3,3,0,0,1,.78,2.28c-1.61,14.51-7.05,41.56-25.49,60Z" transform="translate(-6.02 -82.91)"/><path class="a" d="M506,298.76a61.49,61.49,0,0,1-18,43.58l-68.6,68.54a19.81,19.81,0,0,1-28,0l-68.49-68.54A61.61,61.61,0,0,1,405.36,251,61.58,61.58,0,0,1,506,298.76Z" transform="translate(-6.02 -82.91)"/></svg>