<svg xmlns="http://www.w3.org/2000/svg" width="500.02" height="478.58" viewBox="0 0 500.02 478.58"><defs><style>.a{fill:#10551f;}</style></defs><title>Icon-04</title><path class="a" d="M256,87C162.82,87,87,162.82,87,256s75.81,169,169,169a167.92,167.92,0,0,0,65.36-13.11,6.48,6.48,0,0,0-5-11.95A155,155,0,0,1,256,412c-86,0-156-70-156-156s70-156,156-156,156,70,156,156a154.88,154.88,0,0,1-46.81,111.4,6.48,6.48,0,0,0,9.07,9.25A167.72,167.72,0,0,0,425,256c0-93.17-75.8-169-169-169Z" transform="translate(-5.99 -16.71)"/><path class="a" d="M496.36,278.29a30.67,30.67,0,0,0,0-44.67l-37-34.82a17.58,17.58,0,0,1-5.23-16.16l9.43-49.9a30.69,30.69,0,0,0-26.32-36.11l-50.31-6.42a17.72,17.72,0,0,1-13.84-10L351.49,34.3A30.69,30.69,0,0,0,309,20.52L264.5,44.92a17.57,17.57,0,0,1-17.1,0L203,20.52A30.73,30.73,0,0,0,160.46,34.3L138.85,80.21a17.59,17.59,0,0,1-13.83,10L74.71,96.63A30.71,30.71,0,0,0,48.44,132.8l9.43,49.84a17.65,17.65,0,0,1-5.28,16.22L15.64,233.62a30.66,30.66,0,0,0,0,44.66l37,34.82a17.57,17.57,0,0,1,5.28,16.22l-9.48,49.84a30.74,30.74,0,0,0,26.27,36.17L125,421.75a17.51,17.51,0,0,1,13.78,10l21.61,45.91a30.69,30.69,0,0,0,42.53,13.83L247.4,467a17.84,17.84,0,0,1,17.1,0L309,491.49a30.73,30.73,0,0,0,42.54-13.83l21.66-45.86a17.57,17.57,0,0,1,13.78-10.05l50.36-6.42a30.66,30.66,0,0,0,26.27-36.12l-9.43-49.89a17.75,17.75,0,0,1,5.23-16.22Zm-55,53.41,9.43,49.9a17.66,17.66,0,0,1-15.18,20.88l-50.36,6.42a30.68,30.68,0,0,0-23.88,17.36l-21.61,45.9a17.72,17.72,0,0,1-24.56,8l-44.51-24.45a30.51,30.51,0,0,0-29.53,0l-44.45,24.45a17.68,17.68,0,0,1-24.56-8l-21.61-45.85a30.51,30.51,0,0,0-23.88-17.36l-50.36-6.42A17.7,17.7,0,0,1,61.13,381.6l9.43-49.9a30.61,30.61,0,0,0-9.06-28l-37-34.81a17.77,17.77,0,0,1,0-25.81l37-34.76a30.56,30.56,0,0,0,9.06-28.08l-9.43-49.85a17.74,17.74,0,0,1,15.19-20.88l50.36-6.42A30.39,30.39,0,0,0,150.56,85.7l21.61-45.85a17.66,17.66,0,0,1,24.56-8l44.45,24.4a30.51,30.51,0,0,0,29.53,0l44.51-24.4a17.68,17.68,0,0,1,24.56,8L361.39,85.7a30.48,30.48,0,0,0,23.88,17.36l50.36,6.42a17.68,17.68,0,0,1,15.18,20.88l-9.43,49.85a30.46,30.46,0,0,0,9.12,28l36.94,34.81a17.72,17.72,0,0,1,0,25.81L450.5,303.67a30.5,30.5,0,0,0-9.12,28Z" transform="translate(-5.99 -16.71)"/><path class="a" d="M256,121.24c-74.3,0-134.71,60.47-134.71,134.77a134.71,134.71,0,0,0,269.42,0c0-74.3-60.41-134.77-134.71-134.77ZM330.14,247l-27.56,26.89,6.48,38a13,13,0,0,1-5.19,12.75,12.88,12.88,0,0,1-13.73,1l-34.09-18-34.19,18A13.06,13.06,0,0,1,203,311.91l6.52-38L181.86,247a13,13,0,0,1,7.2-22.23l38.13-5.54,17.1-34.61a13,13,0,0,1,23.37,0l17.1,34.56,38.18,5.59a13,13,0,0,1,7.2,22.23Z" transform="translate(-5.99 -16.71)"/><path class="a" d="M289.78,276.16l6.37,38-34.09-17.93a13.34,13.34,0,0,0-6.06-1.5,13.16,13.16,0,0,0-6.06,1.5l-34.25,17.88,6.53-38a13.11,13.11,0,0,0-3.73-11.55l-27.57-27.05L229.06,232a13,13,0,0,0,9.79-7.1l17.2-34.56,17.05,34.56a13.12,13.12,0,0,0,9.84,7.1l38.19,5.7-27.62,26.89a13.08,13.08,0,0,0-3.73,11.55Z" transform="translate(-5.99 -16.71)"/></svg>